:SAMPLES-PER-SECOND 30
:FULLY-SPECIFIED
:DEGREES
17
root  83.1029 40.3737 -4.82623 171.036 -84.3534 -172.569
RightUpLeg  1.50076 -6.6868 -3.05133
RightLeg  3.01278 -2.81996 3.6076
RightFoot  -2.21097 0.1506 -2.06996
RightToes  0.000482159 0.542163 -0.142577
Spine  4.09125 0.115066 2.72289
Spine1  3.54108 0.51752 -1.83539
HEad  -1.5233 2.71731 -2.38162
LeftShoulder1  0.341754 1.62687 -10.6254
LeftArm  -17.9991 6.89959 -4.64727
LeftForeArm  11.6921 -0.926852 -1.69355
LeftHand  -0.25398 0.0180481 5.50724
RightShoulder  0.380265 -1.13664 8.62642
RightArm  -23.9 3.21343 1.84105
RightForeArm  0.636485 -0.290706 2.19874
RightHand  -3.44735 11.4373 -23.91
LeftUpLeg  1.36243 5.87298 3.39141
LeftLeg  3.65026 13.7211 -3.80917
LeftFoot  -4.12247 -0.0283062 0.846153
LeftToes  1.06247e-005 4.65854e-005 -8.18502e-006
18
root  83.0937 40.365 -4.78953 171.234 -84.3405 -172.8
RightUpLeg  1.47904 -6.77398 -3.16239
RightLeg  3.15082 -2.6755 3.62481
RightFoot  -2.31711 0.144282 -2.00838
RightToes  0.000482159 0.542163 -0.142577
Spine  4.09104 0.0230207 2.87969
Spine1  3.69363 0.484512 -2.0787
HEad  -1.70697 1.56335 -2.1178
LeftShoulder1  0.334776 1.67811 -10.7546
LeftArm  -18.4318 6.91225 -4.7219
LeftForeArm  11.7872 -0.997869 -1.52092
LeftHand  -0.25398 0.0180481 5.50724
RightShoulder  0.407274 -0.984912 8.74657
RightArm  -24.4995 2.99584 2.18303
RightForeArm  0.406609 0.0222637 2.04393
RightHand  -3.46663 11.3165 -24.201
LeftUpLeg  1.27265 5.71879 3.23167
LeftLeg  3.98304 13.9488 -3.59893
LeftFoot  -4.61542 -0.0111107 0.66004
LeftToes  1.06247e-005 4.65854e-005 -8.18502e-006
19
root  83.0845 40.3532 -4.74063 170.984 -84.3032 -172.616
RightUpLeg  1.50295 -6.87136 -3.26365
RightLeg  3.25937 -2.53121 3.66101
RightFoot  -2.3508 0.134489 -1.896
RightToes  0.000482159 0.542163 -0.142577
Spine  4.16705 -0.0490349 3.08407
Spine1  3.85965 0.47873 -2.32636
HEad  -1.51431 1.15279 -1.9067
LeftShoulder1  0.323404 1.74678 -10.8157
LeftArm  -19.4719 7.19761 -5.3564
LeftForeArm  12.2529 -1.82435 -1.18952
LeftHand  -0.25398 0.0180481 5.50724
RightShoulder  0.435563 -0.82095 8.82258
RightArm  -25.3302 2.35364 3.22389
RightForeArm  -1.22589 0.86328 1.97892
RightHand  -3.58384 11.4157 -24.8383
LeftUpLeg  1.14295 5.56091 3.08315
LeftLeg  4.56313 14.3804 -3.26681
LeftFoot  -5.50704 0.0163471 0.327133
LeftToes  1.06247e-005 4.65854e-005 -8.18502e-006
20
root  83.0728 40.342 -4.68009 169.924 -84.1076 -171.648
RightUpLeg  1.57638 -6.83572 -3.22326
RightLeg  3.31474 -2.42786 3.62007
RightFoot  -2.33467 0.125322 -1.79296
RightToes  0.000482159 0.542163 -0.142577
Spine  4.42173 0.00147023 3.36706
Spine1  3.85557 0.60507 -2.5922
HEad  -0.852946 1.17907 -1.84162
LeftShoulder1  0.345909 1.63131 -10.9177
LeftArm  -20.8811 8.04916 -6.60078
LeftForeArm  13.456 -3.91149 -0.871607
LeftHand  -0.25398 0.0180481 5.50724
RightShoulder  0.494259 -0.534512 9.2781
RightArm  -25.5398 1.00444 4.56037
RightForeArm  -4.94836 2.67212 2.3738
RightHand  -3.73746 11.4732 -25.7652
LeftUpLeg  0.973906 5.53306 3.03436
LeftLeg  5.42424 15.1065 -2.81114
LeftFoot  -6.6739 0.0369682 0.081761
LeftToes  1.06247e-005 4.65854e-005 -8.18502e-006
21
root  83.0488 40.3267 -4.6082 168.194 -83.7632 -170.052
RightUpLeg  1.72545 -6.72236 -3.09196
RightLeg  3.3269 -2.20752 3.57047
RightFoot  -2.42756 0.110195 -1.62487
RightToes  0.000482159 0.542163 -0.142577
Spine  4.94411 0.165481 3.7689
Spine1  3.53815 0.858118 -2.90582
HEad  0.35313 1.45613 -1.92595
LeftShoulder1  0.43193 1.22795 -11.5252
LeftArm  -21.9355 9.26444 -8.0241
LeftForeArm  15.3274 -6.89317 -0.855499
LeftHand  -0.25398 0.0180481 5.50724
RightShoulder  0.610684 -0.0564027 10.463
RightArm  -24.8016 -1.01943 5.72136
RightForeArm  -8.05087 5.33338 3.11182
RightHand  -3.86616 11.5443 -26.5008
LeftUpLeg  0.804926 5.74128 3.08921
LeftLeg  6.47608 15.8496 -2.25687
LeftFoot  -7.88785 0.0459189 0.0553908
LeftToes  1.06247e-005 4.65854e-005 -8.18502e-006
22
root  83.0076 40.2968 -4.52769 166.633 -83.4089 -168.717
RightUpLeg  1.91138 -6.71405 -3.09329
RightLeg  3.54162 -1.73665 3.63204
RightFoot  -2.76689 0.0666807 -1.1377
RightToes  0.000482159 0.542163 -0.142577
Spine  5.55816 0.345402 4.15671
Spine1  3.28638 1.12271 -3.18728
HEad  1.52873 1.3663 -1.93921
LeftShoulder1  0.590684 0.599695 -13.0816
LeftArm  -22.3173 10.2867 -9.18318
LeftForeArm  17.3889 -9.76071 -1.13015
LeftHand  -0.25398 0.0180481 5.50724
RightShoulder  0.794873 0.58528 12.3814
RightArm  -23.6252 -3.35037 6.70004
RightForeArm  -7.66829 8.20852 3.74557
RightHand  -3.91561 11.7239 -26.5562
LeftUpLeg  0.76504 6.09422 3.17933
LeftLeg  7.47915 16.212 -1.78254
LeftFoot  -8.93542 0.0528797 0.0330296
LeftToes  1.06247e-005 4.65854e-005 -8.18502e-006
23
root  82.9582 40.2441 -4.44349 166.096 -83.1102 -168.545
RightUpLeg  1.89482 -6.94555 -3.3183
RightLeg  4.55369 -1.01515 3.6705
RightFoot  -3.4798 -0.00457686 -0.27181
RightToes  0.000482159 0.542163 -0.142577
Spine  5.88556 0.509307 4.34527
Spine1  3.83415 1.36042 -3.39748
HEad  2.41229 1.20622 -1.85043
LeftShoulder1  0.834332 -0.212492 -15.4369
LeftArm  -22.5701 10.74 -10.2863
LeftForeArm  19.1604 -11.7365 -1.39121
LeftHand  -0.25398 0.0180481 5.50724
RightShoulder  1.04254 1.30978 14.8291
RightArm  -22.3734 -5.61355 7.84443
RightForeArm  -4.87301 10.7398 4.10443
RightHand  -3.86945 11.8141 -26.1282
LeftUpLeg  0.924823 6.54861 3.26031
LeftLeg  8.32763 16.0224 -1.57973
LeftFoot  -9.67545 0.0625244 -0.308216
LeftToes  1.06247e-005 4.65854e-005 -8.18502e-006
24
root  82.9181 40.1647 -4.35641 166.655 -82.7828 -169.587
RightUpLeg  1.31871 -8.02401 -3.5994
RightLeg  6.94076 0.553052 3.35309
RightFoot  -4.61438 -0.0680968 0.626041
RightToes  0.000482159 0.542163 -0.142577
Spine  6.105 0.666076 4.21652
Spine1  4.9376 1.54463 -3.46179
HEad  3.12778 1.23722 -1.85707
LeftShoulder1  1.1827 -1.19931 -18.4011
LeftArm  -23.0592 10.6975 -11.6191
LeftForeArm  20.1524 -12.6106 -1.45421
LeftHand  -0.25398 0.0180481 5.50724
RightShoulder  1.37068 2.17309 17.5379
RightArm  -20.6245 -7.67481 9.30517
RightForeArm  -2.51169 12.7465 4.34306
RightHand  -3.75444 11.5502 -25.7654
LeftUpLeg  1.15623 7.11992 3.33132
LeftLeg  9.23401 15.6005 -1.57766
LeftFoot  -10.1696 0.0705225 -0.928862
LeftToes  1.06247e-005 4.65854e-005 -8.18502e-006
25
root  82.9006 40.0543 -4.2625 167.598 -82.3821 -171.072
RightUpLeg  -0.0986764 -10.5701 -3.73212
RightLeg  10.8769 3.62982 2.64409
RightFoot  -5.79797 -0.10567 1.37304
RightToes  0.000482159 0.542163 -0.142577
Spine  6.83948 0.745638 3.83507
Spine1  5.60748 1.5799 -3.39206
HEad  3.8063 1.38569 -2.06677
LeftShoulder1  1.61707 -2.20074 -21.8675
LeftArm  -23.4327 10.3019 -13.2684
LeftForeArm  19.7499 -12.2876 -1.36732
LeftHand  -0.25398 0.0180481 5.50724
RightShoulder  1.78307 3.16864 20.3299
RightArm  -18.3572 -9.46174 11.0473
RightForeArm  -0.694758 14.1871 4.53752
RightHand  -3.59053 10.9956 -25.4851
LeftUpLeg  1.26406 7.72929 3.36757
LeftLeg  10.4677 15.3577 -1.50481
LeftFoot  -10.7464 0.0719933 -1.43488
LeftToes  1.06247e-005 4.65854e-005 -8.18502e-006
26
root  82.905 39.9314 -4.16161 168.27 -82.0424 -172.303
RightUpLeg  -2.27154 -12.8374 -3.79654
RightLeg  15.8893 6.36427 2.14102
RightFoot  -6.13088 -0.160119 2.58628
RightToes  0.000482159 0.542163 -0.142577
Spine  8.31082 0.654661 3.31873
Spine1  5.51521 1.37872 -3.14062
HEad  4.30415 1.72889 -2.41439
LeftShoulder1  2.10773 -3.10565 -25.6093
LeftArm  -23.2141 9.47907 -15.2407
LeftForeArm  17.6839 -10.607 -1.27324
LeftHand  -0.25398 0.0180481 5.50724
RightShoulder  2.21297 4.0593 23.0414
RightArm  -16.5059 -10.8756 13.3253
RightForeArm  1.80601 15.0312 4.56232
RightHand  -3.43087 10.5358 -25.0739
LeftUpLeg  1.31981 8.2771 3.32993
LeftLeg  11.7745 15.1753 -1.30279
LeftFoot  -11.5695 0.0663348 -1.61181
LeftToes  1.06247e-005 4.65854e-005 -8.18502e-006
27
root  82.9111 39.8139 -4.07338 169.566 -81.9211 -174.15
RightUpLeg  -4.8584 -12.215 -4.3232
RightLeg  21.4596 6.07845 2.37145
RightFoot  -5.30761 -0.312272 5.17044
RightToes  0.000482159 0.542163 -0.142577
Spine  9.92249 0.425016 2.56278
Spine1  5.45897 0.990054 -2.73443
HEad  4.43084 2.41561 -2.79449
LeftShoulder1  2.72938 -4.18164 -29.3454
LeftArm  -22.3658 8.12907 -17.3746
LeftForeArm  14.8416 -7.81225 -1.32301
LeftHand  -0.25398 0.0180481 5.50724
RightShoulder  2.61893 4.74682 25.647
RightArm  -16.1279 -11.9988 16.4258
RightForeArm  4.20281 15.3085 4.44275
RightHand  -3.35737 10.4136 -24.7431
LeftUpLeg  1.45343 8.76398 3.11836
LeftLeg  12.8569 14.7148 -1.12648
LeftFoot  -12.4916 0.0579312 -1.68817
LeftToes  1.06247e-005 4.65854e-005 -8.18502e-006
